<?xml version="1.0" standalone="no"?>
<!DOCTYPE svg PUBLIC "-//W3C//DTD SVG 20010904//EN"
 "http://www.w3.org/TR/2001/REC-SVG-20010904/DTD/svg10.dtd">
<svg version="1.0" xmlns="http://www.w3.org/2000/svg"
 width="1200.000000pt" height="1200.000000pt" viewBox="0 0 1200.000000 1200.000000"
 preserveAspectRatio="xMidYMid meet">
<metadata>
Created by potrace 1.14, written by Peter Selinger 2001-2017
</metadata>
<g transform="translate(0.000000,1200.000000) scale(0.100000,-0.100000)"
fill="#000000" stroke="none">
<path d="M5959 9396 c-2 -2 -58 -11 -124 -21 -210 -29 -392 -77 -555 -145 -41
-17 -88 -36 -105 -42 -50 -19 -286 -142 -360 -188 -239 -150 -539 -425 -698
-640 -39 -52 -82 -111 -97 -130 -15 -19 -34 -48 -44 -65 -9 -16 -26 -46 -37
-65 -54 -89 -88 -158 -82 -164 3 -3 2 -6 -4 -6 -17 0 -103 -208 -156 -375 -90
-281 -119 -481 -119 -805 0 -362 41 -597 173 -985 31 -90 98 -235 109 -235 21
2 280 187 280 201 0 5 -17 51 -39 102 -60 143 -116 345 -152 547 -32 178 -32
501 0 710 45 289 112 502 236 737 188 359 488 672 867 906 327 202 772 328
1158 327 87 0 346 -22 402 -34 72 -16 207 -50 228 -58 14 -6 52 -18 85 -28
110 -33 315 -123 355 -155 8 -7 47 -29 85 -50 76 -41 255 -164 255 -175 0 -4
10 -11 23 -17 42 -19 256 -234 351 -351 126 -157 185 -247 263 -404 157 -316
220 -580 230 -964 6 -231 -6 -355 -53 -569 -89 -399 -290 -760 -587 -1058
-142 -142 -213 -198 -402 -319 -169 -108 -346 -184 -625 -265 -239 -69 -477
-93 -746 -74 -227 15 -313 33 -588 117 -61 19 -113 34 -117 34 -4 0 -23 -24
-42 -52 -20 -29 -61 -89 -91 -133 -53 -77 -68 -115 -45 -115 6 0 39 -11 75
-25 160 -63 195 -74 279 -93 393 -90 784 -102 1169 -37 234 41 355 77 621 190
198 83 402 210 590 366 100 83 251 231 307 302 13 16 42 52 66 80 141 168 317
484 387 692 103 308 144 531 152 825 6 228 -4 362 -42 567 -26 139 -30 156
-102 377 -50 154 -61 177 -187 417 -53 101 -152 251 -218 330 -168 201 -283
316 -439 442 -221 178 -410 285 -724 412 -112 45 -192 69 -328 100 -228 51
-360 65 -606 65 -125 0 -230 -2 -232 -4z"/>
<path d="M5948 8710 c-96 -16 -389 -101 -413 -120 -5 -4 -21 -11 -35 -15 -31
-9 -206 -105 -280 -153 -134 -87 -303 -240 -418 -378 -182 -219 -326 -530
-381 -820 -20 -109 -47 -556 -35 -576 4 -6 8 -37 11 -69 14 -212 145 -600 264
-784 17 -27 44 -68 58 -90 28 -45 112 -148 123 -153 24 -11 -8 -52 -143 -192
-138 -144 -150 -154 -163 -137 -36 47 -78 67 -140 67 l-61 0 -605 -609 c-700
-703 -675 -672 -675 -831 1 -85 4 -101 29 -150 33 -63 78 -125 115 -158 67
-60 217 -100 308 -83 123 24 121 22 747 645 415 412 587 590 593 611 13 47 9
157 -6 193 l-14 33 162 162 c123 124 164 159 175 152 239 -170 395 -243 667
-309 132 -32 230 -34 276 -6 95 57 73 189 -36 225 -25 8 -80 21 -121 30 -92
18 -261 65 -275 75 -5 4 -21 11 -35 15 -14 4 -63 26 -110 50 -249 124 -473
330 -618 567 -122 200 -210 445 -241 671 -15 111 -13 405 3 512 55 350 213
666 450 900 61 61 137 128 170 150 118 81 141 96 161 106 11 5 45 23 75 40
122 68 354 145 510 169 93 14 311 11 405 -5 208 -37 231 -39 264 -26 47 20 81
66 81 109 0 40 -37 104 -69 121 -130 70 -532 102 -773 61z"/>
<path d="M6035 8124 c-289 -48 -579 -231 -730 -459 -107 -161 -156 -285 -180
-455 -19 -134 -19 -203 1 -342 24 -177 83 -323 202 -502 33 -50 164 -187 443
-464 218 -216 427 -418 465 -448 92 -73 301 -175 424 -205 83 -21 118 -24 280
-23 168 0 193 3 275 26 251 71 469 221 628 430 54 72 130 235 164 355 27 93
28 109 28 298 -1 191 -2 204 -29 290 -28 90 -99 242 -149 322 -61 97 -256 299
-737 767 -231 225 -254 243 -380 303 -229 110 -473 147 -705 107z m429 -273
c81 -23 213 -87 289 -142 23 -16 80 -65 126 -107 80 -73 411 -399 411 -404 0
-2 -265 -269 -588 -593 -323 -325 -597 -604 -608 -620 l-22 -30 -114 115 c-62
63 -170 170 -240 237 -178 172 -255 285 -313 463 -26 79 -28 98 -29 255 -1
152 1 178 22 245 100 316 325 519 663 595 93 21 300 14 403 -14z"/>
<path d="M6035 7503 c-35 -9 -63 -34 -80 -70 -33 -69 -21 -87 256 -360 138
-137 262 -251 275 -255 87 -24 180 86 144 172 -10 25 -448 461 -497 495 -22
16 -72 24 -98 18z"/>
</g>
</svg>
